<?xml version="1.0" standalone="no"?><!DOCTYPE svg PUBLIC "-//W3C//DTD SVG 1.1//EN" "http://www.w3.org/Graphics/SVG/1.1/DTD/svg11.dtd"><svg class="icon" width="20px" height="19.78px" viewBox="0 0 1035 1024" version="1.1" xmlns="http://www.w3.org/2000/svg"><path fill="#ffffff" d="M905.898667 44.032 129.365333 44.032c-71.338667 0-129.365333 58.026667-129.365333 129.365333l0 518.144c0 71.338667 58.026667 129.365333 129.365333 129.365333l253.952 0 134.144 163.84 133.802667-163.84 254.293333 0c71.338667 0 129.365333-58.026667 129.365333-129.365333L1034.922667 173.397333C1035.264 102.058667 977.237333 44.032 905.898667 44.032L905.898667 44.032 905.898667 44.032zM236.885333 498.005333c-34.474667 0-62.464-27.989333-62.464-62.464 0-34.474667 27.989333-62.464 62.464-62.464 34.474667 0 62.464 27.989333 62.464 62.464C299.349333 470.016 271.36 498.005333 236.885333 498.005333L236.885333 498.005333 236.885333 498.005333zM518.144 498.005333c-34.474667 0-62.464-27.989333-62.464-62.464 0-34.474667 27.989333-62.464 62.464-62.464 34.474667 0 62.464 27.989333 62.464 62.464C580.608 470.016 552.618667 498.005333 518.144 498.005333L518.144 498.005333zM799.402667 498.005333c-34.474667 0-62.464-27.989333-62.464-62.464 0-34.474667 27.989333-62.464 62.464-62.464 34.474667 0 62.464 27.989333 62.464 62.464C861.866667 470.016 833.877333 498.005333 799.402667 498.005333L799.402667 498.005333zM799.402667 498.005333" /></svg>